<?xml version="1.0" encoding="UTF-8" standalone="no"?>
<!-- Created with Inkscape (http://www.inkscape.org/) -->

<svg
   version="1.1"
   id="svg1"
   width="880"
   height="880"
   viewBox="0 0 880 880"
   sodipodi:docname="bodybuilder-barbell-publicdomainvectors.org.svg"
   inkscape:version="1.3.2 (091e20e, 2023-11-25, custom)"
   xmlns:inkscape="http://www.inkscape.org/namespaces/inkscape"
   xmlns:sodipodi="http://sodipodi.sourceforge.net/DTD/sodipodi-0.dtd"
   xmlns="http://www.w3.org/2000/svg"
   xmlns:svg="http://www.w3.org/2000/svg">
  <defs
     id="defs1">
    <clipPath
       clipPathUnits="userSpaceOnUse"
       id="clipPath3">
      <path
         d="M 0,660 H 660 V 0 H 0 Z"
         transform="translate(-348.37501,-80.9023)"
         id="path3" />
    </clipPath>
    <clipPath
       clipPathUnits="userSpaceOnUse"
       id="clipPath5">
      <path
         d="M 0,660 H 660 V 0 H 0 Z"
         transform="translate(-408.06351,-516.23932)"
         id="path5" />
    </clipPath>
    <clipPath
       clipPathUnits="userSpaceOnUse"
       id="clipPath7">
      <path
         d="M 0,660 H 660 V 0 H 0 Z"
         transform="translate(-428.74221,-157.02441)"
         id="path7" />
    </clipPath>
    <clipPath
       clipPathUnits="userSpaceOnUse"
       id="clipPath9">
      <path
         d="M 0,660 H 660 V 0 H 0 Z"
         transform="translate(-453.96881,-151.79691)"
         id="path9" />
    </clipPath>
    <clipPath
       clipPathUnits="userSpaceOnUse"
       id="clipPath11">
      <path
         d="M 0,660 H 660 V 0 H 0 Z"
         transform="translate(-417.23341,-227.36331)"
         id="path11" />
    </clipPath>
    <clipPath
       clipPathUnits="userSpaceOnUse"
       id="clipPath13">
      <path
         d="M 0,660 H 660 V 0 H 0 Z"
         transform="translate(-411.37701,-226.83891)"
         id="path13" />
    </clipPath>
    <clipPath
       clipPathUnits="userSpaceOnUse"
       id="clipPath15">
      <path
         d="M 0,660 H 660 V 0 H 0 Z"
         transform="translate(-362.67481,-301.29881)"
         id="path15" />
    </clipPath>
    <clipPath
       clipPathUnits="userSpaceOnUse"
       id="clipPath17">
      <path
         d="M 0,660 H 660 V 0 H 0 Z"
         transform="translate(-274.9048,-158.02641)"
         id="path17" />
    </clipPath>
    <clipPath
       clipPathUnits="userSpaceOnUse"
       id="clipPath19">
      <path
         d="M 0,660 H 660 V 0 H 0 Z"
         transform="translate(-249.80181,-152.2305)"
         id="path19" />
    </clipPath>
    <clipPath
       clipPathUnits="userSpaceOnUse"
       id="clipPath21">
      <path
         d="M 0,660 H 660 V 0 H 0 Z"
         transform="translate(-264.81151,-202.47271)"
         id="path21" />
    </clipPath>
    <clipPath
       clipPathUnits="userSpaceOnUse"
       id="clipPath23">
      <path
         d="M 0,660 H 660 V 0 H 0 Z"
         transform="translate(-270.58941,-232.01461)"
         id="path23" />
    </clipPath>
    <clipPath
       clipPathUnits="userSpaceOnUse"
       id="clipPath25">
      <path
         d="M 0,660 H 660 V 0 H 0 Z"
         transform="translate(-314.24511,-331.52491)"
         id="path25" />
    </clipPath>
    <clipPath
       clipPathUnits="userSpaceOnUse"
       id="clipPath27">
      <path
         d="M 0,660 H 660 V 0 H 0 Z"
         transform="translate(-453.52731,-386.85941)"
         id="path27" />
    </clipPath>
    <clipPath
       clipPathUnits="userSpaceOnUse"
       id="clipPath29">
      <path
         d="M 0,660 H 660 V 0 H 0 Z"
         transform="translate(-462.73141,-337.06451)"
         id="path29" />
    </clipPath>
    <clipPath
       clipPathUnits="userSpaceOnUse"
       id="clipPath31">
      <path
         d="M 0,660 H 660 V 0 H 0 Z"
         transform="translate(-413.93751,-432.80371)"
         id="path31" />
    </clipPath>
    <clipPath
       clipPathUnits="userSpaceOnUse"
       id="clipPath33">
      <path
         d="M 0,660 H 660 V 0 H 0 Z"
         transform="translate(-509.29792,-310.39551)"
         id="path33" />
    </clipPath>
    <clipPath
       clipPathUnits="userSpaceOnUse"
       id="clipPath35">
      <path
         d="M 0,660 H 660 V 0 H 0 Z"
         transform="translate(-451.37501,-325.25681)"
         id="path35" />
    </clipPath>
    <clipPath
       clipPathUnits="userSpaceOnUse"
       id="clipPath37">
      <path
         d="M 0,660 H 660 V 0 H 0 Z"
         transform="translate(-525.95611,-300.60551)"
         id="path37" />
    </clipPath>
    <clipPath
       clipPathUnits="userSpaceOnUse"
       id="clipPath39">
      <path
         d="M 0,660 H 660 V 0 H 0 Z"
         transform="translate(-517.75291,-321.31251)"
         id="path39" />
    </clipPath>
    <clipPath
       clipPathUnits="userSpaceOnUse"
       id="clipPath41">
      <path
         d="M 0,660 H 660 V 0 H 0 Z"
         transform="translate(-291.7393,-408.40971)"
         id="path41" />
    </clipPath>
    <clipPath
       clipPathUnits="userSpaceOnUse"
       id="clipPath43">
      <path
         d="M 0,660 H 660 V 0 H 0 Z"
         transform="translate(-333.69341,-466.35941)"
         id="path43" />
    </clipPath>
    <clipPath
       clipPathUnits="userSpaceOnUse"
       id="clipPath45">
      <path
         d="M 0,660 H 660 V 0 H 0 Z"
         transform="translate(-311.99411,-417.05131)"
         id="path45" />
    </clipPath>
    <clipPath
       clipPathUnits="userSpaceOnUse"
       id="clipPath47">
      <path
         d="M 0,660 H 660 V 0 H 0 Z"
         transform="translate(-275.26221,-515.21041)"
         id="path47" />
    </clipPath>
    <clipPath
       clipPathUnits="userSpaceOnUse"
       id="clipPath49">
      <path
         d="M 0,660 H 660 V 0 H 0 Z"
         transform="translate(-278.28471,-568.78811)"
         id="path49" />
    </clipPath>
    <clipPath
       clipPathUnits="userSpaceOnUse"
       id="clipPath51">
      <path
         d="M 0,660 H 660 V 0 H 0 Z"
         transform="translate(-259.17241,-492.12351)"
         id="path51" />
    </clipPath>
    <clipPath
       clipPathUnits="userSpaceOnUse"
       id="clipPath53">
      <path
         d="M 0,660 H 660 V 0 H 0 Z"
         transform="translate(-292.04691,-569.92631)"
         id="path53" />
    </clipPath>
    <clipPath
       clipPathUnits="userSpaceOnUse"
       id="clipPath55">
      <path
         d="M 0,660 H 660 V 0 H 0 Z"
         transform="translate(-154.65381,-491.51611)"
         id="path55" />
    </clipPath>
    <clipPath
       clipPathUnits="userSpaceOnUse"
       id="clipPath57">
      <path
         d="M 0,660 H 660 V 0 H 0 Z"
         transform="translate(-390.89651,-567.36911)"
         id="path57" />
    </clipPath>
    <clipPath
       clipPathUnits="userSpaceOnUse"
       id="clipPath59">
      <path
         d="M 0,660 H 660 V 0 H 0 Z"
         transform="translate(-152.6802,-537.64651)"
         id="path59" />
    </clipPath>
    <clipPath
       clipPathUnits="userSpaceOnUse"
       id="clipPath61">
      <path
         d="M 0,660 H 660 V 0 H 0 Z"
         transform="translate(-279.15721,-588.09031)"
         id="path61" />
    </clipPath>
    <clipPath
       clipPathUnits="userSpaceOnUse"
       id="clipPath63">
      <path
         d="M 0,660 H 660 V 0 H 0 Z"
         transform="translate(-316.05661,-301.29881)"
         id="path63" />
    </clipPath>
    <clipPath
       clipPathUnits="userSpaceOnUse"
       id="clipPath65">
      <path
         d="M 0,660 H 660 V 0 H 0 Z"
         transform="translate(-359.40631,-508.21531)"
         id="path65" />
    </clipPath>
    <clipPath
       clipPathUnits="userSpaceOnUse"
       id="clipPath67">
      <path
         d="M 0,660 H 660 V 0 H 0 Z"
         transform="translate(-378.19241,-508.75931)"
         id="path67" />
    </clipPath>
    <clipPath
       clipPathUnits="userSpaceOnUse"
       id="clipPath69">
      <path
         d="M 0,660 H 660 V 0 H 0 Z"
         transform="translate(-378.19241,-508.75931)"
         id="path69" />
    </clipPath>
    <clipPath
       clipPathUnits="userSpaceOnUse"
       id="clipPath71">
      <path
         d="M 0,660 H 660 V 0 H 0 Z"
         transform="translate(-286.7305,-506.68951)"
         id="path71" />
    </clipPath>
    <clipPath
       clipPathUnits="userSpaceOnUse"
       id="clipPath73">
      <path
         d="M 0,660 H 660 V 0 H 0 Z"
         transform="translate(-384.08501,-543.40582)"
         id="path73" />
    </clipPath>
    <clipPath
       clipPathUnits="userSpaceOnUse"
       id="clipPath75">
      <path
         d="M 0,660 H 660 V 0 H 0 Z"
         transform="translate(-376.11131,-518.20511)"
         id="path75" />
    </clipPath>
    <clipPath
       clipPathUnits="userSpaceOnUse"
       id="clipPath77">
      <path
         d="M 0,660 H 660 V 0 H 0 Z"
         transform="translate(-393.31741,-495.12651)"
         id="path77" />
    </clipPath>
    <clipPath
       clipPathUnits="userSpaceOnUse"
       id="clipPath79">
      <path
         d="M 0,660 H 660 V 0 H 0 Z"
         transform="translate(-148.65381,-567.53761)"
         id="path79" />
    </clipPath>
    <clipPath
       clipPathUnits="userSpaceOnUse"
       id="clipPath81">
      <path
         d="M 0,660 H 660 V 0 H 0 Z"
         transform="translate(-140.9478,-560.15281)"
         id="path81" />
    </clipPath>
    <clipPath
       clipPathUnits="userSpaceOnUse"
       id="clipPath83">
      <path
         d="M 0,660 H 660 V 0 H 0 Z"
         transform="translate(-386.23141,-641.39062)"
         id="path83" />
    </clipPath>
    <clipPath
       clipPathUnits="userSpaceOnUse"
       id="clipPath85">
      <path
         d="M 0,660 H 660 V 0 H 0 Z"
         transform="translate(-378.52541,-634.00632)"
         id="path85" />
    </clipPath>
    <clipPath
       clipPathUnits="userSpaceOnUse"
       id="clipPath87">
      <path
         d="M 0,660 H 660 V 0 H 0 Z"
         transform="translate(-340.89841,-501.95461)"
         id="path87" />
    </clipPath>
    <clipPath
       clipPathUnits="userSpaceOnUse"
       id="clipPath89">
      <path
         d="M 0,660 H 660 V 0 H 0 Z"
         transform="translate(-362.68951,-491.19631)"
         id="path89" />
    </clipPath>
    <clipPath
       clipPathUnits="userSpaceOnUse"
       id="clipPath91">
      <path
         d="M 0,660 H 660 V 0 H 0 Z"
         transform="translate(-337.43261,-487.36621)"
         id="path91" />
    </clipPath>
    <clipPath
       clipPathUnits="userSpaceOnUse"
       id="clipPath93">
      <path
         d="M 0,660 H 660 V 0 H 0 Z"
         transform="translate(-409.18261,-509.08591)"
         id="path93" />
    </clipPath>
    <clipPath
       clipPathUnits="userSpaceOnUse"
       id="clipPath95">
      <path
         d="M 0,660 H 660 V 0 H 0 Z"
         transform="translate(-395.39751,-497.51271)"
         id="path95" />
    </clipPath>
  </defs>
  <sodipodi:namedview
     id="namedview1"
     pagecolor="#ffffff"
     bordercolor="#000000"
     borderopacity="0.25"
     inkscape:showpageshadow="2"
     inkscape:pageopacity="0.0"
     inkscape:pagecheckerboard="0"
     inkscape:deskcolor="#d1d1d1"
     inkscape:zoom="0.67272727"
     inkscape:cx="439.25676"
     inkscape:cy="440"
     inkscape:window-width="1440"
     inkscape:window-height="830"
     inkscape:window-x="-6"
     inkscape:window-y="-6"
     inkscape:window-maximized="1"
     inkscape:current-layer="g1">
    <inkscape:page
       x="0"
       y="0"
       inkscape:label="1"
       id="page1"
       width="880"
       height="880"
       margin="107.86974 168.77733 16.885334 152.89333"
       bleed="0" />
  </sodipodi:namedview>
  <g
     id="g1"
     inkscape:groupmode="layer"
     inkscape:label="1">
    <g
       id="group-MC0">
      <path
         id="path2"
         d="M 0,0 C 95.214,0 172.87,19.987 172.87,44.496 172.87,69.002 95.214,88.989 0,88.989 -95.213,88.989 -172.87,69.002 -172.87,44.496 -172.87,19.987 -95.213,0 0,0"
         style="fill:#d7c9c4;fill-opacity:1;fill-rule:evenodd;stroke:none"
         transform="matrix(1.3333333,0,0,-1.3333333,464.5,772.13027)"
         clip-path="url(#clipPath3)" />
      <path
         id="path4"
         d="m 0,0 c 12.314,0 19.285,-9.982 15.57,-22.295 -3.715,-12.314 -16.708,-22.296 -29.021,-22.296 -12.314,0 -19.284,9.982 -15.569,22.296 C -25.306,-9.982 -12.312,0 0,0"
         style="fill:#463d3b;fill-opacity:1;fill-rule:evenodd;stroke:none"
         transform="matrix(1.3333333,0,0,-1.3333333,544.08467,191.68093)"
         clip-path="url(#clipPath5)" />
      <path
         id="path6"
         d="m 0,0 c -9.912,-2.042 -14.734,-10.038 -10.772,-17.857 3.962,-7.817 15.208,-12.499 25.121,-10.455 9.91,2.044 14.732,10.04 10.77,17.858 C 21.156,-2.635 9.91,2.045 0,0"
         style="fill:#463d3b;fill-opacity:1;fill-rule:evenodd;stroke:none"
         transform="matrix(1.3333333,0,0,-1.3333333,571.65627,670.63413)"
         clip-path="url(#clipPath7)" />
      <path
         id="path8"
         d="m 0,0 c -14.735,5.715 -26.512,2.827 -26.303,-6.449 0.209,-9.277 12.324,-21.434 27.059,-27.149 14.735,-5.717 26.512,-2.83 26.303,6.449 C 26.85,-17.872 14.735,-5.718 0,0"
         style="fill:#463d3b;fill-opacity:1;fill-rule:evenodd;stroke:none"
         transform="matrix(1.3333333,0,0,-1.3333333,605.29173,677.60413)"
         clip-path="url(#clipPath9)" />
      <path
         id="path10"
         d="m 0,0 c -6.831,-1.937 -10.63,-9.635 -8.487,-17.192 2.142,-7.558 9.418,-12.115 16.249,-10.177 6.83,1.937 10.63,9.635 8.487,17.192 C 14.106,-2.619 6.831,1.936 0,0"
         style="fill:#f28f62;fill-opacity:1;fill-rule:evenodd;stroke:none"
         transform="matrix(1.3333333,0,0,-1.3333333,556.3112,576.84893)"
         clip-path="url(#clipPath11)" />
      <path
         id="path12"
         d="m 0,0 v 0 c -10.784,3.474 -16.568,-4.402 -12.854,-17.502 l 10.371,-36.57 c 3.714,-13.102 15.578,-26.661 26.364,-30.138 10.784,-3.474 16.568,4.402 12.853,17.504 l -10.37,36.568 C 22.648,-17.036 10.785,-3.474 0,0"
         style="fill:#f28f62;fill-opacity:1;fill-rule:evenodd;stroke:none"
         transform="matrix(1.3333333,0,0,-1.3333333,548.50267,577.54813)"
         clip-path="url(#clipPath13)" />
      <path
         id="path14"
         d="M 0,0 V 0 C 14.676,3.203 32.741,-5.435 40.144,-19.194 L 60.398,-56.84 C 67.8,-70.6 61.848,-84.478 47.171,-87.681 32.495,-90.884 14.429,-82.246 7.027,-68.483 l -20.253,37.642 C -20.629,-17.081 -14.679,-3.201 0,0"
         style="fill:#2f2825;fill-opacity:1;fill-rule:evenodd;stroke:none"
         transform="matrix(1.3333333,0,0,-1.3333333,483.5664,478.26827)"
         clip-path="url(#clipPath15)" />
      <path
         id="path16"
         d="m 0,0 c 9.955,-1.82 14.956,-9.706 11.171,-17.61 -3.785,-7.907 -14.924,-12.838 -24.878,-11.017 -9.955,1.818 -14.957,9.703 -11.171,17.61 C -21.093,-3.112 -9.955,1.821 0,0"
         style="fill:#463d3b;fill-opacity:1;fill-rule:evenodd;stroke:none"
         transform="matrix(1.3333333,0,0,-1.3333333,366.53973,669.29813)"
         clip-path="url(#clipPath17)" />
      <path
         id="path18"
         d="m 0,0 c 14.603,6.046 26.441,3.425 26.441,-5.854 0,-9.28 -11.838,-21.705 -26.441,-27.752 -14.603,-6.045 -26.441,-3.424 -26.441,5.855 0,9.281 11.838,21.704 26.441,27.751"
         style="fill:#463d3b;fill-opacity:1;fill-rule:evenodd;stroke:none"
         transform="matrix(1.3333333,0,0,-1.3333333,333.06907,677.026)"
         clip-path="url(#clipPath19)" />
      <path
         id="path20"
         d="m 0,0 c 7.082,0 12.856,6.39 12.856,14.225 0,7.834 -5.774,14.222 -12.856,14.222 -7.081,0 -12.856,-6.388 -12.856,-14.222 C -12.856,6.39 -7.081,0 0,0"
         style="fill:#f28f62;fill-opacity:1;fill-rule:evenodd;stroke:none"
         transform="matrix(1.3333333,0,0,-1.3333333,353.082,610.0364)"
         clip-path="url(#clipPath21)" />
      <path
         id="path22"
         d="m 0,0 v 0 c 9.426,6.285 17.141,0.285 17.141,-13.334 v -38.01 c 0,-13.619 -7.715,-29.902 -17.141,-36.187 -9.429,-6.285 -17.142,-0.285 -17.142,13.332 v 38.012 C -17.142,-22.57 -9.429,-6.287 0,0"
         style="fill:#f28f62;fill-opacity:1;fill-rule:evenodd;stroke:none"
         transform="matrix(1.3333333,0,0,-1.3333333,360.78587,570.6472)"
         clip-path="url(#clipPath23)" />
      <path
         id="path24"
         d="M 0,0 H 50.433 C 67.855,0 82.11,-14.254 82.11,-31.676 v -0.001 c 0,-17.422 -14.255,-31.678 -31.677,-31.678 H 0 c -17.424,0 -31.677,14.256 -31.677,31.678 v 0.001 C -31.677,-14.254 -17.424,0 0,0"
         style="fill:#2f2825;fill-opacity:1;fill-rule:evenodd;stroke:none"
         transform="matrix(1.3333333,0,0,-1.3333333,418.99347,437.9668)"
         clip-path="url(#clipPath25)" />
      <path
         id="path26"
         d="M 0,0 C 9.393,14.449 5.128,33.887 -9.527,43.414 -24.183,52.942 -43.679,48.952 -53.072,34.502 -62.467,20.053 -58.201,0.615 -43.545,-8.913 -28.891,-18.44 -9.395,-14.45 0,0"
         style="fill:#f28f62;fill-opacity:1;fill-rule:evenodd;stroke:none"
         transform="matrix(1.3333333,0,0,-1.3333333,604.70307,364.18747)"
         clip-path="url(#clipPath27)" />
      <path
         id="path28"
         d="M 0,0 C 9.439,14.517 2.521,40.55 -15.45,58.148 -33.421,75.745 -55.641,78.242 -65.078,63.725 -74.516,49.208 -67.599,23.174 -49.627,5.578 -31.656,-12.021 -9.438,-14.517 0,0"
         style="fill:#f28f62;fill-opacity:1;fill-rule:evenodd;stroke:none"
         transform="matrix(1.3333333,0,0,-1.3333333,616.9752,430.58067)"
         clip-path="url(#clipPath29)" />
      <path
         id="path30"
         d="m 0,0 c -5.346,-2.344 -10.078,-6.206 -13.482,-11.442 -4.644,-7.143 -5.948,-15.502 -4.311,-23.282 -7.065,-14.876 0.058,-38.888 16.96,-55.438 1.898,-1.859 3.842,-3.546 5.813,-5.065 14.104,6.83 23.444,21.617 23.444,40.562 C 28.424,-33.567 16.844,-12.699 0,0"
         style="fill:#df7c51;fill-opacity:1;fill-rule:evenodd;stroke:none"
         transform="matrix(1.3333333,0,0,-1.3333333,551.91667,302.9284)"
         clip-path="url(#clipPath31)" />
      <path
         id="path32"
         d="M 0,0 C -11.347,19.973 -45.031,55.864 -62.232,29.404 -69.441,18.317 -61.354,2.746 -44.169,-5.374 -26.983,-13.493 11.346,-19.975 0,0"
         style="fill:#f28f62;fill-opacity:1;fill-rule:evenodd;stroke:none"
         transform="matrix(1.3333333,0,0,-1.3333333,679.06387,466.13933)"
         clip-path="url(#clipPath33)" />
      <path
         id="path34"
         d="m 0,0 c 2.968,4.566 1.62,10.707 -3.011,13.718 -4.632,3.01 -10.792,1.749 -13.76,-2.816 -2.967,-4.566 -1.621,-10.708 3.01,-13.718 C -9.13,-5.827 -2.97,-4.566 0,0"
         style="fill:#f28f62;fill-opacity:1;fill-rule:evenodd;stroke:none"
         transform="matrix(1.3333333,0,0,-1.3333333,601.83333,446.32427)"
         clip-path="url(#clipPath35)" />
      <path
         id="path36"
         d="m 0,0 c 8.563,8.248 9.961,18.538 3.121,22.984 -6.839,4.448 -19.325,1.366 -27.888,-6.88 -8.562,-8.25 -9.96,-18.54 -3.12,-22.985 C -21.048,-11.328 -8.562,-8.246 0,0"
         style="fill:#f28f62;fill-opacity:1;fill-rule:evenodd;stroke:none"
         transform="matrix(1.3333333,0,0,-1.3333333,701.2748,479.19267)"
         clip-path="url(#clipPath37)" />
      <path
         id="path38"
         d="M 0,0 C 1.765,5.724 -0.127,10.602 -4.227,10.894 -8.326,11.189 -13.079,6.786 -14.845,1.062 -16.61,-4.66 -14.717,-9.539 -10.617,-9.832 -6.517,-10.125 -1.765,-5.722 0,0"
         style="fill:#f28f62;fill-opacity:1;fill-rule:evenodd;stroke:none"
         transform="matrix(1.3333333,0,0,-1.3333333,690.3372,451.58333)"
         clip-path="url(#clipPath39)" />
      <path
         id="path40"
         d="m 0,0 h 116.705 v -55.435 c 0,-30.489 -24.946,-55.436 -55.435,-55.436 H 55.435 C 24.945,-110.871 0,-85.924 0,-55.435 Z"
         style="fill:#3c619a;fill-opacity:1;fill-rule:evenodd;stroke:none"
         transform="matrix(1.3333333,0,0,-1.3333333,388.98573,335.45373)"
         clip-path="url(#clipPath41)" />
      <path
         id="path42"
         d="m 0,0 48.671,-10.349 c 28.787,-6.122 52.339,-35.748 52.339,-65.836 0,-30.088 -23.552,-49.698 -52.339,-43.576 L 0,-109.412 c -28.787,6.121 -52.34,35.748 -52.34,65.836 C -52.34,-13.487 -28.787,6.121 0,0"
         style="fill:#4d78b3;fill-opacity:1;fill-rule:evenodd;stroke:none"
         transform="matrix(1.3333333,0,0,-1.3333333,444.92453,258.18747)"
         clip-path="url(#clipPath43)" />
      <path
         id="path44"
         d="M 0,0 C 17.187,0 31.206,14.218 31.206,31.65 31.206,49.082 17.187,63.3 0,63.3 -17.188,63.3 -31.207,49.082 -31.207,31.65 -31.207,14.218 -17.188,0 0,0"
         style="fill:#f28f62;fill-opacity:1;fill-rule:evenodd;stroke:none"
         transform="matrix(1.3333333,0,0,-1.3333333,415.99213,323.9316)"
         clip-path="url(#clipPath45)" />
      <path
         id="path46"
         d="m 0,0 c 17.315,0 35.371,-19.99 40.33,-44.647 4.959,-24.659 -5.059,-44.648 -22.374,-44.648 -17.315,0 -35.372,19.989 -40.33,44.648 C -27.331,-19.99 -17.315,0 0,0"
         style="fill:#f28f62;fill-opacity:1;fill-rule:evenodd;stroke:none"
         transform="matrix(1.3333333,0,0,-1.3333333,367.01627,193.0528)"
         clip-path="url(#clipPath47)" />
      <path
         id="path48"
         d="m 0,0 c 10.561,-20.399 22.29,-68.204 -9.267,-68.204 -13.226,0 -21.873,15.268 -19.314,34.102 C -26.021,-15.268 -10.563,20.399 0,0"
         style="fill:#f28f62;fill-opacity:1;fill-rule:evenodd;stroke:none"
         transform="matrix(1.3333333,0,0,-1.3333333,371.04627,121.61587)"
         clip-path="url(#clipPath49)" />
      <path
         id="path50"
         d="m 0,0 c 5.431,0 9.861,4.493 9.861,10.001 0,5.508 -4.43,10.001 -9.861,10.001 -5.432,0 -9.861,-4.493 -9.861,-10.001 C -9.861,4.493 -5.432,0 0,0"
         style="fill:#f28f62;fill-opacity:1;fill-rule:evenodd;stroke:none"
         transform="matrix(1.3333333,0,0,-1.3333333,345.5632,223.83533)"
         clip-path="url(#clipPath51)" />
      <path
         id="path52"
         d="m 0,0 c 5.76,-1.64 8.818,-5.885 6.83,-9.482 -1.989,-3.597 -8.271,-5.183 -14.032,-3.543 -5.76,1.64 -8.818,5.885 -6.828,9.482 C -12.043,0.054 -5.761,1.64 0,0"
         style="fill:#f28f62;fill-opacity:1;fill-rule:evenodd;stroke:none"
         transform="matrix(1.3333333,0,0,-1.3333333,389.39587,120.09827)"
         clip-path="url(#clipPath53)" />
      <path
         id="path54"
         d="M 0,0 C 22.022,0 39.983,17.961 39.983,39.983 39.983,62.006 22.022,79.967 0,79.967 -22.022,79.967 -39.983,62.006 -39.983,39.983 -39.983,17.961 -22.022,0 0,0"
         style="fill:#7e2b1a;fill-opacity:1;fill-rule:evenodd;stroke:none"
         transform="matrix(1.3333333,0,0,-1.3333333,206.20507,224.6452)"
         clip-path="url(#clipPath55)" />
      <path
         id="path56"
         d="M 0,0 C 22.022,0 39.982,17.962 39.982,39.983 39.982,62.006 22.022,79.967 0,79.967 -22.022,79.967 -39.983,62.006 -39.983,39.983 -39.983,17.962 -22.022,0 0,0"
         style="fill:#7e2b1a;fill-opacity:1;fill-rule:evenodd;stroke:none"
         transform="matrix(1.3333333,0,0,-1.3333333,521.19533,123.50787)"
         clip-path="url(#clipPath57)" />
      <path
         id="path58"
         d="M 0,0 236.243,75.854 240.19,63.56 3.947,-12.294 Z"
         style="fill:#7e2b1a;fill-opacity:1;fill-rule:evenodd;stroke:none"
         transform="matrix(1.3333333,0,0,-1.3333333,203.5736,163.138)"
         clip-path="url(#clipPath59)" />
      <path
         id="path60"
         d="m 0,0 c 11.581,2.684 20.971,-1.753 20.971,-9.911 0,-8.158 -9.39,-16.947 -20.971,-19.631 -11.581,-2.683 -20.97,1.755 -20.97,9.913 0,8.157 9.389,16.945 20.97,19.629"
         style="fill:#f28f62;fill-opacity:1;fill-rule:evenodd;stroke:none"
         transform="matrix(1.3333333,0,0,-1.3333333,372.2096,95.8796)"
         clip-path="url(#clipPath61)" />
      <path
         id="path62"
         d="M 0,0 V 0 C -14.676,3.203 -32.743,-5.435 -40.145,-19.194 L -60.397,-56.84 c -7.404,-13.76 -1.452,-27.638 13.225,-30.841 14.676,-3.203 32.741,5.435 40.144,19.198 l 20.253,37.642 C 20.628,-17.081 14.676,-3.201 0,0"
         style="fill:#2f2825;fill-opacity:1;fill-rule:evenodd;stroke:none"
         transform="matrix(1.3333333,0,0,-1.3333333,421.4088,478.26827)"
         clip-path="url(#clipPath63)" />
      <path
         id="path64"
         d="m 0,0 c 10.858,0 19.715,8.856 19.715,19.714 0,10.859 -8.857,19.715 -19.715,19.715 -10.857,0 -19.714,-8.856 -19.714,-19.715 C -19.714,8.856 -10.857,0 0,0"
         style="fill:#463d3b;fill-opacity:1;fill-rule:evenodd;stroke:none"
         transform="matrix(1.3333333,0,0,-1.3333333,479.2084,202.3796)"
         clip-path="url(#clipPath65)" />
      <path
         id="path66"
         d="M 0,0 V 0 C 12.699,0 23.089,-10.39 23.089,-23.089 V -60.932 C 23.089,-73.63 12.699,-84.02 0,-84.02 c -12.698,0 -23.088,10.39 -23.088,23.088 v 37.843 C -23.088,-10.39 -12.698,0 0,0"
         style="fill:#f28f62;fill-opacity:1;fill-rule:evenodd;stroke:none"
         transform="matrix(1.3333333,0,0,-1.3333333,504.25653,201.65427)"
         clip-path="url(#clipPath67)" />
      <path
         id="path68"
         d="m 0,0 v 0 c 12.699,0 23.089,-10.39 23.089,-23.089 v -16.369 c -9.176,-13.888 -26.569,-21.121 -43.495,-16.644 -0.911,0.24 -1.805,0.514 -2.682,0.813 v 32.2 C -23.088,-10.39 -12.698,0 0,0"
         style="fill:#df7c51;fill-opacity:1;fill-rule:evenodd;stroke:none"
         transform="matrix(1.3333333,0,0,-1.3333333,504.25653,201.65427)"
         clip-path="url(#clipPath69)" />
      <path
         id="path70"
         d="m 0,0 c 7.859,0 16.053,-9.071 18.303,-20.262 2.25,-11.191 -2.295,-20.262 -10.154,-20.262 -7.858,0 -16.052,9.071 -18.302,20.262 C -12.404,-9.071 -7.858,0 0,0"
         style="fill:#f5a683;fill-opacity:1;fill-rule:evenodd;stroke:none"
         transform="matrix(1.3333333,0,0,-1.3333333,382.30733,204.414)"
         clip-path="url(#clipPath71)" />
      <path
         id="path72"
         d="m 0,0 v 0 c 21.198,-5.606 33.953,-27.537 28.348,-48.734 l -1.569,-5.93 c -5.606,-21.197 -27.537,-33.954 -48.734,-28.347 -21.197,5.607 -33.953,27.536 -28.348,48.735 l 1.569,5.928 C -43.129,-7.149 -21.197,5.606 0,0"
         style="fill:#f28f62;fill-opacity:1;fill-rule:evenodd;stroke:none"
         transform="matrix(1.3333333,0,0,-1.3333333,512.11333,155.45893)"
         clip-path="url(#clipPath73)" />
      <path
         id="path74"
         d="M 0,0 C 12.828,0 23.289,10.463 23.289,23.291 23.289,36.118 12.828,46.58 0,46.58 -12.827,46.58 -23.29,36.118 -23.29,23.291 -23.29,10.463 -12.827,0 0,0"
         style="fill:#463d3b;fill-opacity:1;fill-rule:evenodd;stroke:none"
         transform="matrix(1.3333333,0,0,-1.3333333,501.48173,189.05987)"
         clip-path="url(#clipPath75)" />
      <path
         id="path76"
         d="M 0,0 C 13.914,0 25.263,11.348 25.263,25.262 25.263,39.176 13.914,50.524 0,50.524 -13.914,50.524 -25.261,39.176 -25.261,25.262 -25.261,11.348 -13.914,0 0,0"
         style="fill:#463d3b;fill-opacity:1;fill-rule:evenodd;stroke:none"
         transform="matrix(1.3333333,0,0,-1.3333333,524.4232,219.83133)"
         clip-path="url(#clipPath77)" />
      <path
         id="path78"
         d="m 0,0 c 12.906,0 21.02,-10.462 18.124,-23.369 -2.898,-12.905 -15.709,-23.368 -28.615,-23.368 -12.906,0 -21.02,10.463 -18.123,23.368 C -25.717,-10.462 -12.906,0 0,0"
         style="fill:#91331c;fill-opacity:1;fill-rule:evenodd;stroke:none"
         transform="matrix(1.3333333,0,0,-1.3333333,198.20507,123.2832)"
         clip-path="url(#clipPath79)" />
      <path
         id="path80"
         d="m 0,0 c 6.058,0 9.867,-4.911 8.507,-10.969 -1.36,-6.058 -7.373,-10.969 -13.431,-10.969 -6.059,0 -9.867,4.911 -8.507,10.969 C -12.071,-4.911 -6.058,0 0,0"
         style="fill:#9d381e;fill-opacity:1;fill-rule:evenodd;stroke:none"
         transform="matrix(1.3333333,0,0,-1.3333333,187.9304,133.1296)"
         clip-path="url(#clipPath81)" />
      <path
         id="path82"
         d="m 0,0 c 12.907,0 21.021,-10.462 18.123,-23.369 -2.896,-12.906 -15.707,-23.368 -28.614,-23.368 -12.906,0 -21.02,10.462 -18.123,23.368 C -25.717,-10.462 -12.906,0 0,0"
         style="fill:#91331c;fill-opacity:1;fill-rule:evenodd;stroke:none"
         transform="matrix(1.3333333,0,0,-1.3333333,514.9752,24.812533)"
         clip-path="url(#clipPath83)" />
      <path
         id="path84"
         d="m 0,0 c 6.058,0 9.866,-4.912 8.507,-10.97 -1.361,-6.058 -7.373,-10.969 -13.432,-10.969 -6.058,0 -9.866,4.911 -8.506,10.969 C -12.071,-4.912 -6.059,0 0,0"
         style="fill:#9d381e;fill-opacity:1;fill-rule:evenodd;stroke:none"
         transform="matrix(1.3333333,0,0,-1.3333333,504.70053,34.658267)"
         clip-path="url(#clipPath85)" />
      <path
         id="path86"
         d="m 0,0 c 1.406,0 2.554,2.252 2.554,5.015 0,2.761 -1.148,5.014 -2.554,5.014 -1.406,0 -2.554,-2.253 -2.554,-5.014 C -2.554,2.252 -1.406,0 0,0"
         style="fill:#463d3b;fill-opacity:1;fill-rule:evenodd;stroke:none"
         transform="matrix(1.3333333,0,0,-1.3333333,454.5312,210.7272)"
         clip-path="url(#clipPath87)" />
      <path
         id="path88"
         d="m 0,0 c 2.562,0 4.65,3.072 4.65,6.837 0,3.767 -2.088,6.839 -4.65,6.839 -2.56,0 -4.649,-3.072 -4.649,-6.839 C -4.649,3.072 -2.56,0 0,0"
         style="fill:#463d3b;fill-opacity:1;fill-rule:evenodd;stroke:none"
         transform="matrix(1.3333333,0,0,-1.3333333,483.586,225.0716)"
         clip-path="url(#clipPath89)" />
      <path
         id="path90"
         d="M 0,0 C 5.815,-13.59 12.659,-22.545 23.343,-14.224 15.561,-9.482 7.781,-4.741 0,0"
         style="fill:#ffffff;fill-opacity:1;fill-rule:evenodd;stroke:none"
         transform="matrix(1.3333333,0,0,-1.3333333,449.91013,230.1784)"
         clip-path="url(#clipPath91)" />
      <path
         id="path92"
         d="m 0,0 c 7.286,3.34 12.739,-1.371 12.18,-10.521 -0.559,-9.151 -6.918,-19.276 -14.203,-22.617 -7.286,-3.339 -12.738,1.371 -12.179,10.521 C -13.643,-13.466 -7.284,-3.34 0,0"
         style="fill:#463d3b;fill-opacity:1;fill-rule:evenodd;stroke:none"
         transform="matrix(1.3333333,0,0,-1.3333333,545.5768,201.2188)"
         clip-path="url(#clipPath93)" />
      <path
         id="path94"
         d="M 0,0 C 5.831,2.673 10.194,-1.097 9.748,-8.419 9.301,-15.743 4.211,-23.847 -1.619,-26.52 c -5.83,-2.673 -10.194,1.098 -9.747,8.42 C -10.919,-10.776 -5.83,-2.673 0,0"
         style="fill:#f28f62;fill-opacity:1;fill-rule:evenodd;stroke:none"
         transform="matrix(1.3333333,0,0,-1.3333333,527.19667,216.64973)"
         clip-path="url(#clipPath95)" />
    </g>
  </g>
</svg>
